<?xml version="1.0" standalone="no"?>
<!DOCTYPE svg PUBLIC "-//W3C//DTD SVG 20010904//EN"
 "http://www.w3.org/TR/2001/REC-SVG-20010904/DTD/svg10.dtd">
<svg version="1.0" xmlns="http://www.w3.org/2000/svg"
 width="500.000000pt" height="500.000000pt" viewBox="0 0 500.000000 500.000000"
 preserveAspectRatio="xMidYMid meet">
<g transform="translate(0.000000,500.000000) scale(0.100000,-0.100000)"
fill="#000000" stroke="none">
<path d="M2865 3490 c-3 -5 -1 -10 4 -10 6 0 11 5 11 10 0 6 -2 10 -4 10 -3 0
-8 -4 -11 -10z"/>
<path d="M2796 3467 c3 -10 9 -15 12 -12 3 3 0 11 -7 18 -10 9 -11 8 -5 -6z"/>
<path d="M2836 3435 c5 -21 3 -24 -11 -19 -15 6 -16 3 -10 -24 4 -21 3 -32 -4
-32 -6 0 -11 11 -11 24 0 14 -5 28 -12 32 -7 5 -9 2 -5 -8 4 -12 -3 -17 -29
-20 -36 -4 -68 8 -59 22 3 5 0 12 -6 16 -9 5 -10 0 -6 -15 4 -18 2 -21 -10
-17 -9 4 -24 -1 -34 -10 -18 -16 -20 -15 -44 10 -22 24 -25 25 -25 7 0 -10 6
-22 13 -24 21 -9 -14 -27 -52 -27 -20 0 -39 -7 -47 -17 -13 -16 -15 -17 -27
-2 -7 10 -18 13 -27 8 -61 -32 -105 -48 -108 -39 -2 6 -8 10 -14 10 -6 0 -8
-7 -4 -15 3 -9 0 -15 -10 -15 -8 0 -26 -7 -40 -16 -14 -9 -36 -18 -49 -20 -37
-4 -99 -58 -120 -103 -10 -23 -22 -41 -26 -41 -4 0 -7 -11 -6 -24 1 -14 -2
-25 -7 -25 -5 1 -13 -5 -18 -13 -7 -10 -11 -10 -15 0 -2 6 -9 12 -15 12 -6 0
-6 -6 2 -15 10 -12 -6 -23 -110 -73 -114 -55 -123 -58 -138 -42 -10 9 -39 26
-67 37 -27 11 -77 37 -110 57 -33 20 -61 32 -63 26 -2 -5 3 -44 12 -87 8 -43
18 -108 21 -146 4 -37 11 -65 16 -62 5 4 9 -2 10 -12 0 -10 4 -51 8 -90 4 -40
4 -73 1 -73 -10 0 -132 123 -193 195 -34 40 -85 111 -112 159 -51 88 -77 126
-89 126 -3 0 -27 -42 -52 -92 -25 -51 -54 -101 -62 -111 -15 -17 -15 -20 -2
-31 64 -51 92 -96 116 -182 29 -105 28 -102 8 -106 -13 -2 -17 -21 -19 -92 -5
-102 0 -110 65 -119 25 -3 64 -9 88 -13 l42 -7 0 64 c0 35 -6 92 -14 127 -7
34 -10 64 -8 67 3 3 17 -5 31 -18 37 -34 205 -147 276 -186 57 -31 157 -73
161 -68 1 1 -7 41 -16 90 -13 60 -25 93 -39 105 -12 10 -24 38 -30 72 l-9 55
23 -28 22 -29 7 26 c6 26 58 66 84 66 18 0 15 -24 -8 -65 -11 -20 -20 -43 -21
-53 0 -14 -2 -14 -6 -2 -10 26 -43 41 -43 19 0 -5 4 -8 9 -5 13 8 21 -20 9
-32 -6 -6 1 -8 22 -6 26 3 31 1 28 -14 -2 -11 -11 -16 -24 -14 -13 2 -21 -3
-21 -12 0 -8 4 -13 9 -10 5 4 15 -2 23 -12 11 -16 17 -16 39 -6 33 15 36 15
36 2 0 -5 -9 -10 -19 -10 -11 0 -23 -4 -26 -10 -3 -5 -14 -10 -25 -10 -24 0
-34 -30 -16 -49 19 -18 34 -7 17 13 -9 11 -7 15 11 19 32 9 38 0 22 -31 -19
-38 -18 -51 6 -45 11 3 20 12 20 19 0 8 5 14 11 14 5 0 7 -4 4 -10 -3 -5 -1
-10 5 -10 8 0 10 -9 6 -25 -7 -27 3 -32 22 -13 9 9 12 7 12 -11 0 -22 1 -23
24 -8 22 15 25 15 40 -2 20 -22 20 -31 1 -31 -8 0 -15 -6 -15 -14 0 -9 7 -12
21 -9 12 4 25 0 29 -8 5 -7 13 -10 17 -5 4 5 2 11 -4 13 -15 5 -17 33 -3 33 6
0 10 -5 10 -11 0 -7 12 -9 33 -5 25 5 39 1 56 -13 12 -11 29 -17 36 -15 8 3
20 -4 27 -16 7 -12 28 -30 46 -41 27 -17 32 -27 32 -57 0 -61 10 -83 34 -80
17 2 22 11 24 51 3 39 7 47 22 47 11 0 24 -8 29 -18 17 -32 30 -236 24 -378
l-6 -140 30 -33 c28 -32 30 -33 47 -16 16 17 17 30 11 129 -4 61 -8 184 -9
274 l-2 163 25 -5 c15 -3 51 -12 81 -20 59 -17 130 -21 130 -8 0 4 20 14 45
21 57 17 95 46 95 74 l0 22 -18 -22 c-20 -26 -126 -68 -144 -57 -10 6 -10 5
-1 -7 10 -12 7 -15 -18 -17 -17 -1 -28 2 -25 6 3 5 -6 7 -21 4 -14 -3 -24 -1
-20 4 3 5 -13 9 -36 10 -22 0 -42 5 -44 11 -3 7 -11 9 -20 6 -8 -3 -19 0 -24
8 -7 11 -9 11 -9 -2 0 -9 -6 -22 -13 -28 -15 -12 -16 -39 -2 -60 5 -9 2 -18
-8 -26 -25 -18 -21 -28 6 -14 19 11 20 10 10 -2 -7 -8 -13 -44 -15 -79 l-3
-65 -12 38 c-6 20 -7 35 -2 31 5 -3 9 2 9 10 0 9 -4 16 -9 16 -5 0 -9 20 -9
45 -1 25 -4 51 -8 57 -4 7 -3 8 4 4 11 -7 17 6 13 28 -1 4 4 16 11 25 12 14
11 15 -5 2 -10 -8 -15 -21 -12 -28 3 -9 0 -13 -7 -10 -7 2 -12 11 -12 20 1 9
-2 14 -7 11 -13 -8 -11 10 4 25 8 9 8 12 0 7 -6 -3 -23 -1 -37 5 -20 9 -29 9
-41 -1 -8 -7 -12 -17 -8 -24 3 -6 -8 4 -25 23 -24 26 -29 37 -21 48 6 7 8 13
4 13 -4 0 -1 8 6 18 13 15 12 16 -3 3 -10 -7 -15 -18 -11 -24 4 -6 0 -8 -11
-4 -10 4 -15 3 -11 -3 3 -6 -1 -7 -9 -4 -9 3 -14 10 -11 15 3 4 -4 13 -16 19
-11 7 -18 14 -15 17 9 10 -33 35 -45 27 -17 -10 -30 18 -16 36 11 13 10 13 -7
0 -11 -8 -22 -14 -25 -12 -3 2 -8 -4 -11 -13 -6 -16 -8 -16 -25 1 -17 17 -18
17 -12 2 9 -25 4 -23 -50 18 -29 22 -47 43 -45 53 3 12 0 11 -13 -4 l-17 -20
7 20 c4 11 8 27 10 35 1 8 0 9 -2 3 -7 -21 -22 -15 -38 17 -9 17 -21 28 -27
24 -7 -5 -8 -1 0 11 10 19 -4 68 -17 62 -3 -2 -18 8 -33 23 -28 25 -28 26 -6
27 18 2 20 0 8 -7 -9 -6 -10 -10 -3 -10 16 0 26 17 13 25 -5 3 -10 16 -10 28
0 16 3 18 9 9 15 -24 20 24 6 52 -13 24 -12 25 70 66 67 33 87 49 100 76 16
35 23 89 13 100 -9 8 -284 -133 -307 -158 l-21 -22 0 34 c0 26 3 31 12 22 9
-9 15 -5 24 17 9 23 37 41 138 91 138 68 156 86 156 159 0 42 15 86 38 110 7
7 11 20 8 27 -3 8 1 14 9 14 8 0 14 5 13 11 -2 6 3 14 11 17 9 3 11 0 6 -8 -5
-9 -4 -11 3 -6 7 4 12 14 12 22 0 8 5 15 10 15 6 1 15 3 20 4 6 1 12 4 15 5 3
1 8 3 13 4 31 8 51 19 47 27 -4 5 3 9 15 9 13 0 19 -4 14 -12 -4 -7 -3 -8 5
-4 6 4 8 12 5 18 -5 7 -1 9 9 5 10 -4 17 -2 17 4 0 6 7 8 16 5 8 -3 12 -2 9 4
-3 6 -1 10 4 10 6 0 11 -8 12 -17 1 -12 4 -9 8 7 6 22 13 25 51 25 25 1 69 8
98 17 29 10 50 13 47 8 -4 -6 1 -10 9 -10 9 0 15 6 14 13 -2 6 4 13 12 13 8 1
21 2 28 3 7 0 10 6 7 11 -4 6 8 10 29 10 20 0 36 -4 36 -10 0 -5 9 -10 20 -10
11 0 20 5 20 10 0 6 7 10 16 10 8 0 13 -4 10 -9 -3 -5 2 -12 11 -15 9 -4 20
-2 23 5 5 6 17 8 29 4 13 -4 21 -2 21 6 0 8 4 9 13 0 10 -8 17 -7 25 1 9 9 12
8 12 -5 0 -9 -8 -17 -17 -17 -15 0 -16 -2 -3 -10 8 -5 26 -10 40 -10 22 1 23
2 8 11 -10 5 -18 22 -18 37 0 15 -5 34 -10 42 -7 12 -10 12 -10 1 0 -7 -6 -11
-14 -8 -8 3 -19 -5 -27 -20 -12 -22 -14 -23 -20 -6 -4 10 -2 23 3 30 6 7 5 19
-2 32 -15 28 -22 26 -14 -4z m-1602 -482 c25 -43 56 -93 70 -112 14 -19 23
-38 20 -43 -3 -5 -2 -7 3 -6 5 2 26 -17 48 -41 61 -69 147 -154 180 -180 17
-12 31 -27 31 -32 1 -5 2 -18 3 -29 0 -11 6 -20 11 -20 6 0 8 15 5 38 -9 65
-14 135 -14 225 -1 56 -5 86 -11 82 -5 -3 -11 -23 -11 -43 -2 -40 -1 -42 -20
98 -6 47 -16 96 -20 108 -5 13 -6 22 -2 20 102 -47 203 -102 203 -111 -1 -7
-7 -59 -15 -117 -15 -114 -12 -357 5 -374 7 -7 10 1 10 22 0 18 4 32 9 32 9 0
46 -139 38 -146 -16 -16 -314 157 -302 175 3 5 0 13 -6 17 -8 4 -9 3 -5 -4 4
-7 4 -12 1 -12 -11 0 -97 62 -137 98 -40 36 -61 40 -30 6 9 -11 18 -24 19 -29
6 -42 24 -237 21 -239 -1 -2 -38 2 -81 7 -60 8 -77 14 -72 25 3 7 5 45 5 83 0
41 4 69 10 69 12 0 16 -10 25 -63 3 -21 10 -35 14 -32 5 3 4 24 -1 47 -5 24
-12 54 -14 68 -7 35 -30 121 -40 145 -7 18 -6 19 9 6 10 -8 20 -12 23 -9 2 3
-28 36 -67 75 l-71 69 35 57 c19 32 43 78 53 102 10 25 19 45 21 45 1 0 23
-35 47 -77z m810 30 c-3 -15 -10 -33 -15 -40 -16 -19 -89 -54 -100 -47 -5 3
-8 0 -7 -7 2 -6 -10 -14 -27 -16 -16 -2 -32 -8 -35 -12 -8 -11 -37 -20 -44
-14 -3 3 2 12 12 19 9 8 12 14 5 14 -6 0 -15 -5 -18 -10 -7 -11 -25 -4 -25 10
0 5 6 7 14 4 8 -3 23 3 34 14 11 11 23 17 27 14 4 -4 11 1 16 11 13 22 30 22
22 0 -6 -15 -5 -16 9 -3 9 8 13 19 10 24 -3 5 2 7 11 3 9 -3 17 -3 19 1 4 9
81 62 90 62 4 0 4 -12 2 -27z m-261 -172 c-34 -36 -43 -32 -43 18 l0 35 16
-23 c11 -15 20 -19 26 -13 12 12 1 35 -13 27 -10 -7 -12 8 -2 19 4 3 15 -2 26
-12 18 -19 18 -20 -10 -51z m243 -46 c-17 -21 -40 -38 -57 -42 -16 -3 -29 -9
-29 -14 0 -5 -6 -9 -14 -9 -7 0 -34 -11 -60 -25 -25 -13 -46 -20 -46 -14 0 6
-5 7 -10 4 -6 -4 -7 -11 -4 -17 4 -6 2 -8 -4 -4 -6 3 -13 2 -17 -4 -4 -6 -11
-8 -16 -5 -5 3 -6 -1 -3 -9 4 -11 0 -16 -15 -16 -17 0 -21 6 -21 30 0 20 5 30
15 30 8 0 15 5 15 11 0 6 9 9 19 6 15 -4 18 -1 13 12 -5 14 -4 14 11 2 15 -12
17 -12 12 0 -3 9 10 21 38 34 23 11 44 22 47 25 12 12 51 30 65 30 9 0 13 4
10 10 -3 5 0 7 7 5 8 -3 23 3 33 13 19 19 20 19 29 1 7 -14 2 -28 -18 -54z
m-142 -301 c9 -24 7 -27 -9 -10 -17 17 -19 26 -6 26 5 0 12 -7 15 -16z m46
-108 c-7 -7 -14 -6 -22 2 -10 10 -10 15 2 22 17 11 34 -10 20 -24z m35 -15 c3
-6 -3 -9 -14 -8 -11 0 -17 5 -15 9 7 11 22 10 29 -1z m25 -51 c0 -5 -4 -10
-10 -10 -5 0 -10 5 -10 10 0 6 5 10 10 10 6 0 10 -4 10 -10z m164 -36 c3 -8 2
-12 -4 -9 -6 3 -10 10 -10 16 0 14 7 11 14 -7z m56 -29 c0 -8 -4 -15 -10 -15
-5 0 -10 7 -10 15 0 8 5 15 10 15 6 0 10 -7 10 -15z m134 -181 c3 -8 2 -12 -4
-9 -6 3 -10 10 -10 16 0 14 7 11 14 -7z m146 -229 c0 -8 -4 -15 -10 -15 -5 0
-10 7 -10 15 0 8 5 15 10 15 6 0 10 -7 10 -15z m3 -166 c2 -43 8 -83 15 -91 9
-12 8 -14 -8 -13 -11 1 -23 5 -27 9 -11 11 -14 84 -3 91 5 3 7 38 5 78 -3 58
-2 65 6 37 5 -19 10 -69 12 -111z"/>
<path d="M1190 2955 c-7 -8 -16 -13 -20 -10 -10 6 -7 -22 3 -30 4 -3 5 -2 2 2
-3 3 5 17 17 30 12 13 19 23 16 23 -3 0 -11 -7 -18 -15z"/>
<path d="M1573 2933 c4 -3 1 -13 -6 -22 -10 -14 -10 -14 4 -4 9 7 20 9 25 5 4
-4 2 1 -5 11 -7 9 -16 17 -19 17 -3 0 -2 -3 1 -7z"/>
<path d="M1206 2863 c-6 -14 -5 -15 5 -6 7 7 10 15 7 18 -3 3 -9 -2 -12 -12z"/>
<path d="M1280 2805 c0 -2 6 -8 13 -14 10 -8 14 -7 14 2 0 8 -6 14 -14 14 -7
0 -13 -1 -13 -2z"/>
<path d="M1363 2695 c0 -8 4 -12 9 -9 5 3 6 10 3 15 -9 13 -12 11 -12 -6z"/>
<path d="M1350 2616 c0 -2 8 -10 18 -17 15 -13 16 -12 3 4 -13 16 -21 21 -21
13z"/>
<path d="M1445 2610 c-3 -6 1 -7 9 -4 18 7 21 14 7 14 -6 0 -13 -4 -16 -10z"/>
<path d="M1415 2589 c-4 -6 -5 -12 -2 -15 2 -3 7 2 10 11 7 17 1 20 -8 4z"/>
<path d="M1279 2543 c-12 -14 -12 -16 0 -8 11 6 13 4 8 -9 -4 -9 -3 -15 2 -11
6 3 9 14 8 25 -2 24 -1 24 -18 3z"/>
<path d="M1660 2400 c0 -5 5 -10 11 -10 5 0 7 5 4 10 -3 6 -8 10 -11 10 -2 0
-4 -4 -4 -10z"/>
<path d="M2736 3421 c-4 -7 -5 -15 -2 -18 9 -9 19 4 14 18 -4 11 -6 11 -12 0z"/>
<path d="M2535 3370 c-3 -5 1 -10 10 -10 9 0 13 5 10 10 -3 6 -8 10 -10 10 -2
0 -7 -4 -10 -10z"/>
<path d="M2320 3335 c0 -8 5 -15 10 -15 6 0 10 7 10 15 0 8 -4 15 -10 15 -5 0
-10 -7 -10 -15z"/>
<path d="M2740 3336 c0 -2 9 -6 20 -9 11 -3 18 -1 14 4 -5 9 -34 13 -34 5z"/>
<path d="M2250 3306 c0 -9 5 -16 10 -16 6 0 10 4 10 9 0 6 -4 13 -10 16 -5 3
-10 -1 -10 -9z"/>
<path d="M2896 3305 c3 -8 14 -17 25 -20 11 -4 17 -10 15 -14 -3 -4 -1 -13 5
-21 7 -13 9 -12 9 2 0 23 17 32 24 12 3 -8 2 -12 -4 -9 -6 3 -10 -2 -10 -11 0
-10 3 -14 6 -11 10 9 46 -41 39 -53 -3 -6 0 -7 9 -4 9 3 16 1 16 -5 0 -6 7 -8
17 -4 11 4 14 3 9 -5 -4 -7 -2 -12 3 -12 6 0 11 -7 11 -15 0 -9 6 -12 15 -9
10 4 15 0 15 -15 0 -12 5 -21 10 -21 6 0 10 -5 10 -11 0 -5 -4 -7 -10 -4 -5 3
-10 1 -10 -5 0 -6 -5 -8 -10 -5 -6 4 -8 10 -5 14 4 8 -33 6 -80 -3 -11 -3 -23
-5 -27 -5 -5 -1 -8 -6 -8 -12 0 -5 4 -7 10 -4 6 3 7 -1 4 -9 -3 -9 -10 -16
-16 -16 -5 0 -6 -5 -3 -10 4 -6 -1 -24 -9 -42 -9 -17 -16 -37 -16 -44 0 -7 -9
-15 -19 -19 -13 -4 -18 -12 -14 -22 5 -12 3 -14 -7 -8 -8 5 -11 4 -7 -2 9 -14
-24 -105 -40 -116 -7 -4 -13 -19 -13 -33 0 -16 -4 -23 -11 -18 -8 4 -9 -1 -4
-16 5 -15 4 -20 -4 -16 -7 4 -9 1 -5 -8 3 -8 -2 -28 -11 -45 -8 -17 -13 -31
-9 -31 3 0 -1 -11 -10 -25 -9 -13 -16 -32 -16 -42 0 -15 -2 -16 -11 -3 -8 12
-9 10 -4 -7 4 -13 2 -23 -4 -23 -6 0 -8 -7 -5 -15 4 -8 2 -15 -3 -15 -5 0 -8
-20 -8 -44 1 -25 -3 -42 -8 -39 -5 3 -6 -4 -2 -17 5 -15 4 -20 -4 -16 -6 4
-11 3 -11 -3 0 -5 4 -11 9 -13 4 -1 12 -14 16 -27 5 -15 4 -21 -3 -17 -6 3
-14 1 -18 -5 -4 -7 -3 -9 3 -6 6 4 13 0 17 -8 3 -8 11 -15 18 -15 7 0 38 -20
68 -45 66 -55 99 -66 114 -40 12 20 116 138 126 143 4 1 15 -25 25 -58 21 -68
40 -85 108 -95 44 -7 47 -6 66 26 12 19 21 36 21 39 0 3 -25 3 -56 2 -120 -8
-149 33 -184 263 -20 131 -29 219 -24 227 3 4 1 8 -3 8 -8 0 -57 -161 -83
-275 -6 -27 -13 -85 -15 -127 -1 -42 -6 -81 -10 -87 -16 -26 -87 -9 -132 32
-45 41 -25 156 72 397 31 80 77 183 101 231 24 47 44 95 44 106 0 36 28 56 69
48 41 -8 132 -51 143 -68 4 -7 4 -68 1 -137 -3 -69 -2 -157 2 -195 l8 -70 10
50 c11 55 12 98 6 256 l-4 106 -29 11 c-18 7 -27 16 -23 26 3 8 -2 16 -12 19
-23 6 -58 96 -41 107 9 6 9 9 0 15 -6 4 -18 -1 -26 -11 -9 -11 -13 -14 -9 -7
6 13 -30 37 -44 29 -5 -3 -15 2 -22 12 -13 15 -12 16 4 3 24 -19 22 2 -3 24
-11 10 -20 26 -20 36 0 10 -9 21 -20 24 -11 3 -20 10 -20 14 0 5 -11 6 -25 3
-15 -2 -25 0 -25 7 0 6 -4 11 -10 11 -5 0 -7 -7 -4 -15z m119 -790 c4 -28 11
-68 17 -89 5 -22 7 -55 3 -74 -7 -39 -38 -77 -54 -67 -7 3 -11 3 -10 -2 1 -4
-3 -19 -9 -33 l-11 -25 0 30 c-1 50 47 321 55 312 2 -1 6 -25 9 -52z m-95
-315 c0 -5 -5 -10 -11 -10 -5 0 -7 5 -4 10 3 6 8 10 11 10 2 0 4 -4 4 -10z"/>
<path d="M2195 3270 c3 -5 8 -10 11 -10 2 0 4 5 4 10 0 6 -5 10 -11 10 -5 0
-7 -4 -4 -10z"/>
<path d="M2903 3265 c0 -8 4 -15 9 -15 4 0 8 4 8 9 0 6 -4 12 -8 15 -5 3 -9
-1 -9 -9z"/>
<path d="M3020 3270 c0 -5 5 -10 11 -10 5 0 7 5 4 10 -3 6 -8 10 -11 10 -2 0
-4 -4 -4 -10z"/>
<path d="M3050 3232 c0 -5 7 -13 16 -16 10 -4 14 -1 12 6 -5 15 -28 23 -28 10z"/>
<path d="M2960 3216 c0 -2 8 -10 18 -17 15 -13 16 -12 3 4 -13 16 -21 21 -21
13z"/>
<path d="M2015 3149 c-4 -6 -5 -12 -2 -15 2 -3 7 2 10 11 7 17 1 20 -8 4z"/>
<path d="M3140 3120 c0 -5 5 -10 10 -10 6 0 10 5 10 10 0 6 -4 10 -10 10 -5 0
-10 -4 -10 -10z"/>
<path d="M2135 3110 c-3 -5 -1 -10 4 -10 6 0 11 5 11 10 0 6 -2 10 -4 10 -3 0
-8 -4 -11 -10z"/>
<path d="M965 3009 c-107 -55 -113 -61 -120 -128 -3 -31 -9 -69 -12 -85 -3
-19 -2 -26 6 -22 6 4 11 2 11 -5 0 -8 4 -8 15 1 13 11 15 -9 15 -170 0 -145
-3 -187 -14 -199 -16 -17 -23 -124 -11 -153 6 -16 10 -16 37 7 31 26 158 90
202 101 24 6 26 10 26 59 0 29 2 59 5 67 3 7 -6 26 -19 41 -24 27 -26 28 -48
13 -12 -9 -25 -16 -29 -16 -3 0 -9 93 -13 206 l-7 207 36 37 c28 29 35 43 30
59 -9 29 -18 27 -110 -20z m74 -6 c-13 -15 -30 -32 -38 -38 -11 -10 -12 -50
-4 -236 8 -210 8 -225 -9 -238 -10 -7 -18 -17 -18 -22 0 -4 23 8 51 27 56 37
74 43 65 18 -3 -8 -2 -12 4 -9 9 6 13 -8 13 -50 0 -71 0 -70 -68 -94 -35 -13
-89 -38 -120 -56 l-54 -33 1 43 c2 27 6 41 13 37 5 -3 4 1 -3 10 -10 13 -10
17 3 22 13 5 15 40 14 258 -1 140 -5 236 -9 215 -4 -21 -13 -43 -20 -50 -10
-10 -11 -5 -6 23 4 19 8 50 9 67 2 18 9 38 16 45 9 9 12 9 7 1 -3 -6 -1 -15 5
-19 8 -4 9 -3 5 4 -7 11 42 67 51 58 2 -2 23 7 46 19 59 33 76 32 46 -2z"/>
<path d="M929 2963 c-12 -16 -12 -17 2 -6 12 10 18 10 29 0 12 -10 12 -9 1 6
-7 9 -15 17 -16 17 -1 0 -9 -8 -16 -17z"/>
<path d="M1060 2484 c0 -8 5 -12 10 -9 6 4 8 11 5 16 -9 14 -15 11 -15 -7z"/>
<path d="M887 2323 c3 -7 6 -13 8 -13 2 0 5 6 8 13 3 8 -1 14 -8 14 -7 0 -11
-6 -8 -14z"/>
<path d="M3016 3031 c-3 -5 -4 -16 0 -24 3 -8 -15 -52 -40 -98 -86 -162 -194
-454 -203 -551 l-6 -56 41 -26 c72 -45 78 -40 86 68 3 51 10 107 15 122 5 16
15 56 22 89 7 33 30 110 52 170 46 133 51 152 36 161 -8 4 -9 3 -5 -5 8 -13
-10 -41 -27 -41 -5 0 -2 9 8 20 10 11 14 20 10 20 -4 0 0 9 10 20 12 14 25 18
39 14 19 -6 20 -5 4 7 -12 10 -16 21 -11 37 4 18 8 20 14 10 7 -10 9 -9 9 5 0
10 5 15 10 12 6 -4 8 -10 6 -14 -3 -4 4 -7 16 -7 13 1 22 -6 24 -17 1 -11 6
-22 10 -25 4 -4 4 1 1 11 -4 9 -2 17 3 17 6 0 10 -6 11 -12 0 -7 2 -28 3 -45
2 -18 0 -31 -4 -28 -8 5 -3 -160 5 -182 2 -7 0 -15 -5 -18 -6 -4 -10 -11 -10
-16 0 -6 3 -8 8 -6 4 3 8 -18 9 -46 1 -29 4 -68 7 -87 2 -19 0 -44 -6 -55 l-9
-20 16 20 c17 20 17 20 11 -1 -4 -14 0 -27 14 -39 19 -17 22 -17 37 -3 14 15
18 27 22 83 2 19 2 19 12 2 8 -13 7 -22 -1 -33 -7 -8 -8 -14 -2 -14 6 0 5 -15
-4 -39 -7 -21 -16 -61 -20 -88 -6 -48 -7 -50 -33 -44 -42 9 -71 36 -75 67 -3
16 -9 41 -15 57 -7 19 -7 27 0 27 6 0 3 8 -6 17 -12 12 -15 26 -12 50 4 20 2
31 -4 28 -5 -4 -5 5 1 20 13 33 13 44 0 25 -8 -12 -9 -10 -8 10 1 14 -2 40 -6
58 -6 24 -4 32 6 32 10 0 10 2 0 8 -8 5 -13 37 -15 89 -3 98 -22 129 -32 50
-8 -67 27 -364 54 -451 5 -17 12 -43 15 -57 7 -33 68 -62 121 -57 38 3 39 4
42 43 4 75 48 270 85 380 34 102 95 221 127 248 36 30 36 28 14 54 -26 28 -65
53 -85 53 -37 0 -88 -120 -153 -363 -35 -126 -44 -185 -24 -142 8 17 9 16 4
-5 -3 -14 -9 -42 -12 -62 -3 -21 -10 -38 -14 -38 -5 0 -9 3 -10 8 0 4 -2 14
-4 22 -15 72 -15 75 -5 55 8 -15 9 -6 3 35 -3 30 -7 143 -8 250 l-2 195 -49
21 c-63 28 -110 38 -118 25z m134 -46 c45 -23 32 -29 -16 -6 -21 10 -54 22
-71 26 -18 3 -33 10 -33 15 0 10 76 -12 120 -35z m300 13 c19 -13 36 -30 38
-38 3 -8 -9 -3 -25 13 -33 30 -55 34 -73 12 -15 -18 -3 -42 13 -26 6 6 18 11
26 11 11 0 10 -4 -5 -19 -10 -10 -22 -17 -26 -14 -5 2 -8 0 -8 -5 0 -11 30
-26 45 -23 6 1 0 -7 -12 -18 -28 -27 -36 -27 -28 0 6 19 5 20 -8 8 -14 -13
-13 -16 1 -33 16 -18 16 -19 0 -13 -21 7 -23 -3 -5 -22 8 -9 8 -12 0 -7 -7 4
-13 -2 -15 -16 -4 -29 -31 -30 -33 -1 -1 12 3 21 8 20 5 -1 11 14 13 33 2 19
10 38 18 42 10 6 13 26 7 57 -1 3 -8 -4 -16 -15 -13 -15 -13 -13 1 16 19 41
33 60 44 60 4 0 22 -10 40 -22z m-452 -95 c-23 -43 -45 -82 -51 -88 -11 -12
61 135 75 153 22 26 15 9 -24 -65z m451 26 c-8 -5 -20 -9 -28 -9 -11 0 -11 3
-1 15 7 8 16 12 21 9 5 -3 9 1 10 8 0 10 2 10 6 -1 3 -7 -1 -17 -8 -22z m-102
-34 c-7 -13 -14 -20 -15 -14 -2 5 2 16 8 24 18 21 20 18 7 -10z m-26 -62 c-12
-20 -14 -14 -5 12 4 9 9 14 11 11 3 -2 0 -13 -6 -23z m-345 -45 c-9 -20 -12
-39 -8 -42 3 -4 -2 -4 -12 0 -14 5 -15 9 -4 15 7 5 9 9 4 9 -5 0 -3 7 4 15 7
8 9 15 6 15 -4 0 -1 6 6 14 19 21 20 13 4 -26z m324 -25 c-11 -17 -11 -17 -6
0 3 10 6 24 7 30 0 9 2 9 5 0 3 -7 0 -20 -6 -30z m-367 12 c-3 -9 -8 -14 -10
-11 -3 3 -2 9 2 15 9 16 15 13 8 -4z m407 -6 c0 -5 6 -7 13 -3 10 6 10 4 0 -7
-7 -7 -13 -21 -13 -31 0 -9 -10 -27 -22 -39 -16 -15 -18 -20 -7 -16 15 5 15 2
6 -23 -6 -16 -14 -25 -18 -19 -8 14 0 91 12 105 5 6 6 14 2 17 -3 4 -1 7 6 7
7 0 9 5 6 10 -3 6 -1 10 4 10 6 0 11 -5 11 -11z m-429 -42 c-10 -9 -11 -8 -5
6 3 10 9 15 12 12 3 -3 0 -11 -7 -18z m34 -14 c-5 -38 -15 -63 -27 -63 -5 0
-6 -10 -3 -21 5 -16 4 -19 -6 -14 -9 6 -11 2 -7 -13 4 -12 2 -20 -2 -17 -5 3
-7 -9 -5 -27 2 -18 -1 -38 -6 -45 -6 -6 -8 -17 -4 -23 3 -5 2 -10 -4 -10 -6 0
-8 -6 -5 -14 3 -8 1 -17 -5 -21 -6 -3 -8 -17 -5 -31 3 -13 2 -24 -4 -24 -5 0
-7 -11 -4 -25 6 -35 -6 -75 -23 -75 -8 0 -15 7 -15 15 0 8 -5 15 -11 15 -7 0
-8 7 -4 18 4 9 7 27 6 40 0 13 6 34 15 47 9 14 13 25 9 25 -4 0 -1 7 6 17 8 9
13 18 12 20 -2 1 -3 9 -3 16 0 8 4 7 10 -3 6 -9 10 -10 10 -3 0 6 -4 14 -9 17
-11 7 -2 46 11 46 5 0 8 6 7 13 -3 15 30 90 43 98 7 4 6 9 -1 13 -8 5 -6 15 6
31 23 31 23 31 18 -2z m-64 -64 c-11 -24 -20 -41 -20 -37 -1 12 31 89 35 85 3
-2 -4 -24 -15 -48z m396 29 c-3 -8 -6 -5 -6 6 -1 11 2 17 5 13 3 -3 4 -12 1
-19z m-20 -80 c-3 -7 -5 -2 -5 12 0 14 2 19 5 13 2 -7 2 -19 0 -25z m42 -13
l0 -20 -9 20 c-5 11 -9 27 -9 35 -1 13 0 13 9 0 5 -8 9 -24 9 -35z m-455 -40
c-8 -27 -19 -54 -24 -59 -6 -6 -1 18 11 53 25 73 35 78 13 6z m431 24 c-5 -15
-4 -19 4 -15 6 4 11 3 11 -3 0 -5 -5 -13 -10 -16 -6 -4 -7 -11 -4 -17 4 -6 3
-8 -2 -5 -6 3 -9 18 -8 34 2 38 3 43 10 43 3 0 2 -10 -1 -21z m-468 -139 c-6
-16 -13 -28 -15 -26 -6 6 10 56 18 56 5 0 3 -13 -3 -30z"/>
<path d="M3310 2709 c0 -5 5 -7 10 -4 6 3 10 8 10 11 0 2 -4 4 -10 4 -5 0 -10
-5 -10 -11z"/>
<path d="M2165 2996 c-57 -29 -85 -69 -84 -118 l1 -33 9 40 c18 74 76 115 164
115 67 0 111 -17 172 -67 44 -36 143 -172 143 -197 0 -7 -15 -19 -32 -28 -18
-8 -70 -43 -115 -78 l-83 -62 41 -39 c22 -21 49 -39 59 -39 17 0 70 52 70 70
0 5 3 15 6 24 3 9 2 16 -3 16 -5 0 -14 -12 -20 -27 -9 -25 -10 -22 -5 17 3 25
6 46 7 47 1 2 26 -9 55 -23 30 -14 65 -30 78 -35 23 -9 23 -12 17 -77 -27
-256 -185 -313 -358 -128 -31 33 -55 67 -52 74 8 22 -8 13 -35 -20 l-27 -32
-31 64 c-34 69 -33 71 21 92 30 11 38 33 9 24 -15 -5 -22 6 -42 61 -13 37 -29
92 -36 122 l-12 56 -1 -42 c-1 -34 24 -124 54 -195 4 -11 0 -20 -17 -29 -13
-6 -24 -13 -26 -14 -6 -5 71 -155 88 -170 17 -15 19 -15 35 12 l17 29 68 -68
c193 -193 353 -123 383 168 6 61 1 67 -96 109 -37 15 -64 31 -60 35 4 4 25 18
46 32 l37 25 -32 62 c-18 35 -58 91 -89 125 -106 116 -224 153 -324 102z m309
-398 c-3 -12 -8 -36 -9 -53 -3 -37 -33 -45 -60 -15 -18 20 -18 21 1 34 10 8
30 23 44 35 32 26 33 26 24 -1z"/>
<path d="M3498 2998 c12 -13 23 -37 23 -54 1 -18 3 -22 6 -11 8 30 -6 66 -30
78 l-22 12 23 -25z"/>
<path d="M3280 2996 c0 -2 8 -10 18 -17 15 -13 16 -12 3 4 -13 16 -21 21 -21
13z"/>
<path d="M3302 2913 c-11 -26 -23 -61 -27 -78 -3 -16 8 4 24 44 33 82 36 110
3 34z"/>
<path d="M4170 2940 c-13 -9 -13 -10 0 -11 8 -1 21 -1 28 0 18 3 35 -48 21
-65 -9 -11 -9 -14 0 -14 7 0 9 -10 5 -27 -3 -16 -7 -84 -10 -153 -2 -69 -6
-136 -8 -150 -3 -14 -3 -19 0 -12 3 6 10 12 15 12 6 0 7 -49 3 -127 -4 -71 -6
-145 -5 -167 1 -21 -4 -44 -10 -52 -9 -11 -8 -14 5 -14 13 0 16 12 17 65 1 36
3 80 5 98 7 68 3 267 -5 314 -7 34 -6 75 2 129 7 43 11 103 9 132 -4 49 -6 52
-30 52 -15 0 -34 -5 -42 -10z"/>
<path d="M4118 2923 c7 -3 16 -2 19 1 4 3 -2 6 -13 5 -11 0 -14 -3 -6 -6z"/>
<path d="M3488 2908 c-9 -7 -24 -26 -34 -43 -18 -31 -17 -30 30 23 30 33 32
42 4 20z"/>
<path d="M2500 2906 c0 -2 8 -10 18 -17 15 -13 16 -12 3 4 -13 16 -21 21 -21
13z"/>
<path d="M3820 2903 c-8 -3 -30 -12 -47 -20 -18 -8 -44 -16 -57 -17 -13 0 -23
-3 -20 -5 2 -2 -16 -25 -40 -52 -58 -65 -86 -153 -86 -274 0 -224 99 -340 313
-368 66 -9 94 -8 169 7 72 15 92 16 101 6 10 -10 7 -12 -12 -7 -16 4 -21 3
-14 -4 6 -6 21 -7 35 -4 24 6 25 10 31 117 3 60 3 117 -1 126 -13 32 -37 17
-68 -45 -60 -117 -104 -155 -179 -155 -59 0 -87 25 -112 96 -15 42 -18 84 -18
241 0 174 2 194 22 237 30 65 67 98 111 98 64 0 111 -43 173 -160 17 -30 32
-46 48 -48 l23 -4 -3 109 c-4 117 -15 146 -49 126 -12 -8 -30 -8 -61 -1 -24 5
-66 7 -94 3 -68 -9 -75 -10 -115 -3 -19 4 -42 4 -50 1z m25 -13 c-3 -5 -20
-14 -38 -18 -18 -5 -31 -14 -30 -20 2 -6 -4 -9 -12 -6 -8 4 -33 -13 -63 -43
-57 -57 -86 -125 -97 -225 -8 -71 10 -208 26 -208 6 0 8 -4 5 -8 -7 -12 10
-35 27 -38 16 -2 17 20 2 33 -4 4 -5 3 -1 -4 3 -6 2 -14 -4 -18 -10 -6 -14 6
-10 39 1 11 -3 15 -9 12 -7 -5 -11 3 -12 18 -1 14 -2 29 -3 34 -17 76 -15 179
3 167 4 -2 7 13 6 33 -1 34 8 51 28 52 5 0 5 -5 1 -12 -5 -7 -3 -8 6 -3 10 6
9 11 -4 21 -19 13 -13 39 6 28 7 -4 8 -2 4 5 -9 13 12 44 24 36 4 -3 7 2 6 11
0 9 8 21 19 28 11 6 39 23 62 38 24 15 53 32 65 39 21 11 21 9 -4 -17 -14 -16
-36 -58 -48 -94 -20 -58 -21 -80 -18 -240 5 -228 25 -287 113 -334 l30 -15
-50 6 c-132 16 -228 84 -265 189 -19 52 -21 78 -18 175 3 98 7 122 29 169 35
73 78 115 152 151 66 31 82 35 72 19z m243 -11 c18 -4 40 -5 50 -3 15 4 17 -6
20 -93 l3 -98 -29 50 c-58 101 -66 113 -94 131 -34 23 -37 38 -5 28 12 -4 37
-10 55 -15z m53 -562 c-40 -70 -83 -115 -118 -122 l-28 -7 32 21 c37 23 82 82
115 149 15 32 24 41 26 29 2 -9 -10 -41 -27 -70z m25 -34 c-3 -21 -5 -49 -6
-62 0 -18 -3 -22 -11 -14 -7 7 -23 8 -46 2 l-36 -8 21 22 c40 42 62 67 62 72
0 3 0 10 0 15 0 6 5 10 11 10 7 0 9 -14 5 -37z"/>
<path d="M3534 2879 c-8 -14 -7 -166 2 -181 3 -5 1 -23 -5 -41 -7 -23 -6 -52
4 -102 l13 -70 -3 62 c-2 35 -6 67 -9 72 -4 5 -2 12 4 16 6 4 8 10 5 15 -3 5
-1 11 5 15 7 4 7 12 0 26 -15 28 -8 171 9 177 9 3 11 0 6 -8 -6 -9 -3 -9 14
-1 11 7 21 8 21 3 0 -11 27 -13 60 -5 21 6 18 8 -20 13 -25 4 -57 10 -71 14
-18 5 -29 3 -35 -5z"/>
<path d="M4445 2866 c-22 -8 -57 -33 -77 -56 -108 -121 -83 -345 56 -497 142
-156 330 -133 392 49 44 131 3 296 -104 410 -85 91 -181 125 -267 94z m172
-30 c45 -24 122 -112 149 -171 79 -172 35 -366 -95 -421 -72 -30 -151 -4 -235
77 -51 50 -57 60 -46 74 11 13 10 15 -2 10 -11 -4 -21 9 -36 46 -12 28 -20 55
-17 59 3 5 0 10 -6 12 -14 5 -17 157 -4 179 5 7 10 19 10 26 0 24 67 105 98
118 41 17 142 12 184 -9z"/>
<path d="M4383 2779 c-2 -23 3 -25 10 -4 4 8 3 16 -1 19 -4 3 -9 -4 -9 -15z"/>
<path d="M4646 2773 c-6 -14 -5 -15 5 -6 7 7 10 15 7 18 -3 3 -9 -2 -12 -12z"/>
<path d="M4625 2660 c-7 -21 9 -90 31 -132 11 -20 11 -27 1 -31 -6 -2 2 -4 18
-3 17 1 36 5 43 9 18 12 14 56 -8 106 -30 66 -72 91 -85 51z m61 -35 c19 -30
35 -92 27 -112 -8 -22 -41 12 -53 56 -21 75 -7 106 26 56z"/>
<path d="M4379 2478 c-10 -32 2 -61 15 -39 4 5 2 12 -4 16 -6 4 -8 11 -5 16 4
5 4 9 1 9 -3 0 -6 -1 -7 -2z"/>
<path d="M4645 2471 c-3 -5 -2 -12 3 -15 5 -3 9 1 9 9 0 17 -3 19 -12 6z"/>
<path d="M4726 2355 c-9 -26 -7 -32 5 -12 6 10 9 21 6 23 -2 3 -7 -2 -11 -11z"/>
<path d="M4450 2346 c0 -2 7 -7 16 -10 8 -3 12 -2 9 4 -6 10 -25 14 -25 6z"/>
<path d="M1935 2843 c-25 -6 -45 -22 -45 -36 0 -5 8 -3 18 6 10 10 26 17 35
17 9 0 19 5 22 10 6 10 3 11 -30 3z"/>
<path d="M3616 2813 c-6 -14 -5 -15 5 -6 7 7 10 15 7 18 -3 3 -9 -2 -12 -12z"/>
<path d="M2329 2793 c-9 -10 -14 -40 -14 -77 0 -34 -4 -64 -9 -67 -4 -4 -4 -9
1 -12 6 -4 38 14 72 39 34 24 66 42 72 38 21 -13 -21 55 -47 75 -32 25 -57 27
-75 4z m89 -35 c19 -19 15 -25 -33 -58 -40 -28 -45 -29 -45 -12 0 10 5 33 11
51 12 33 44 42 67 19z"/>
<path d="M3415 2789 c-4 -6 -5 -12 -2 -15 2 -3 7 2 10 11 7 17 1 20 -8 4z"/>
<path d="M3978 2778 c-22 -33 -40 -95 -35 -115 4 -14 5 -12 6 5 1 22 3 29 35
91 19 39 16 52 -6 19z"/>
<path d="M3867 2777 c-3 -8 1 -14 8 -14 7 0 11 6 8 14 -3 7 -6 13 -8 13 -2 0
-5 -6 -8 -13z"/>
<path d="M2466 2758 c3 -5 10 -6 15 -3 13 9 11 12 -6 12 -8 0 -12 -4 -9 -9z"/>
<path d="M1480 2756 c0 -2 8 -10 18 -17 15 -13 16 -12 3 4 -13 16 -21 21 -21
13z"/>
<path d="M3396 2745 c-9 -26 -7 -32 5 -12 6 10 9 21 6 23 -2 3 -7 -2 -11 -11z"/>
<path d="M2626 2727 c3 -10 9 -15 12 -12 3 3 0 11 -7 18 -10 9 -11 8 -5 -6z"/>
<path d="M2003 2667 c-34 -18 -62 -37 -63 -44 0 -6 29 -27 65 -46 l65 -35 0
79 c0 44 -1 79 -2 78 -2 0 -31 -15 -65 -32z m27 -23 c-14 -8 -17 -13 -7 -10
22 7 32 -16 18 -41 -6 -10 -11 -12 -11 -5 0 6 -6 11 -12 10 -7 -2 -12 3 -10
10 1 6 -1 11 -5 11 -5 -1 -12 -1 -18 0 -12 1 46 41 60 41 6 -1 -1 -8 -15 -16z"/>
<path d="M1820 2604 c0 -8 5 -12 10 -9 6 3 10 10 10 16 0 5 -4 9 -10 9 -5 0
-10 -7 -10 -16z"/>
<path d="M3351 2604 c0 -11 3 -14 6 -6 3 7 2 16 -1 19 -3 4 -6 -2 -5 -13z"/>
<path d="M2703 2575 c0 -8 4 -12 9 -9 5 3 6 10 3 15 -9 13 -12 11 -12 -6z"/>
<path d="M2732 2560 c0 -14 2 -19 5 -12 2 6 2 18 0 25 -3 6 -5 1 -5 -13z"/>
<path d="M1947 2539 c7 -7 15 -10 18 -7 3 3 -2 9 -12 12 -14 6 -15 5 -6 -5z"/>
<path d="M2331 2504 c0 -11 3 -14 6 -6 3 7 2 16 -1 19 -3 4 -6 -2 -5 -13z"/>
<path d="M2215 2500 c-3 -6 1 -7 9 -4 18 7 21 14 7 14 -6 0 -13 -4 -16 -10z"/>
<path d="M3206 2483 c-6 -14 -5 -15 5 -6 7 7 10 15 7 18 -3 3 -9 -2 -12 -12z"/>
<path d="M3551 2464 c0 -11 3 -14 6 -6 3 7 2 16 -1 19 -3 4 -6 -2 -5 -13z"/>
<path d="M3312 2450 c0 -14 2 -19 5 -12 2 6 2 18 0 25 -3 6 -5 1 -5 -13z"/>
<path d="M2705 2429 c-4 -6 -5 -12 -2 -15 2 -3 7 2 10 11 7 17 1 20 -8 4z"/>
<path d="M3552 2420 c0 -14 2 -19 5 -12 2 6 2 18 0 25 -3 6 -5 1 -5 -13z"/>
<path d="M4095 2429 c-4 -6 -5 -12 -2 -15 2 -3 7 2 10 11 7 17 1 20 -8 4z"/>
<path d="M4086 2387 c3 -10 9 -15 12 -12 3 3 0 11 -7 18 -10 9 -11 8 -5 -6z"/>
<path d="M3210 2371 c0 -6 4 -13 10 -16 6 -3 7 1 4 9 -7 18 -14 21 -14 7z"/>
<path d="M2365 2351 c-3 -5 -2 -12 3 -15 5 -3 9 1 9 9 0 17 -3 19 -12 6z"/>
<path d="M3292 2340 c0 -14 2 -19 5 -12 2 6 2 18 0 25 -3 6 -5 1 -5 -13z"/>
<path d="M3556 2311 c-6 -42 1 -98 15 -107 5 -3 9 -16 9 -30 l0 -24 114 0 c63
0 123 -3 133 -6 15 -5 15 -4 3 5 -8 6 -30 11 -47 11 -18 0 -33 3 -33 8 0 4
-33 7 -73 6 -82 -1 -93 2 -76 22 9 11 8 14 -4 14 -8 0 -18 12 -22 28 -11 39
-13 62 -4 62 4 0 6 11 5 25 -2 38 -13 30 -20 -14z"/>
<path d="M2250 2328 c14 -17 12 -31 -2 -22 -7 4 -10 4 -6 -1 4 -4 3 -15 -4
-24 -7 -9 -1 -6 12 6 23 22 23 24 7 38 -9 8 -12 10 -7 3z"/>
<path d="M2681 2294 c0 -11 3 -14 6 -6 3 7 2 16 -1 19 -3 4 -6 -2 -5 -13z"/>
<path d="M3282 2280 c0 -14 2 -19 5 -12 2 6 2 18 0 25 -3 6 -5 1 -5 -13z"/>
<path d="M3877 2294 c-3 -5 1 -15 9 -22 16 -14 18 -5 5 17 -5 7 -11 9 -14 5z"/>
<path d="M2200 2281 c0 -5 8 -15 18 -22 15 -12 16 -12 5 2 -7 9 -10 19 -6 22
3 4 1 7 -5 7 -7 0 -12 -4 -12 -9z"/>
<path d="M3913 2265 c0 -8 4 -12 9 -9 5 3 6 10 3 15 -9 13 -12 11 -12 -6z"/>
<path d="M2616 2251 c-4 -5 -2 -12 3 -15 5 -4 12 -2 15 3 4 5 2 12 -3 15 -5 4
-12 2 -15 -3z"/>
<path d="M2720 2251 c0 -6 4 -13 10 -16 6 -3 7 1 4 9 -7 18 -14 21 -14 7z"/>
<path d="M3580 2255 c0 -5 5 -17 10 -25 5 -8 10 -10 10 -5 0 6 -5 17 -10 25
-5 8 -10 11 -10 5z"/>
<path d="M945 2241 c-3 -5 -2 -12 3 -15 5 -3 9 1 9 9 0 17 -3 19 -12 6z"/>
<path d="M1975 2229 c-11 -17 1 -21 15 -4 8 9 8 15 2 15 -6 0 -14 -5 -17 -11z"/>
<path d="M2582 2224 c-14 -16 -5 -18 17 -5 7 5 9 11 5 14 -5 3 -15 -1 -22 -9z"/>
<path d="M3624 2220 c0 -10 5 -16 10 -13 5 3 15 -2 23 -12 7 -11 13 -14 13 -9
0 6 -10 20 -23 32 -21 20 -23 20 -23 2z"/>
<path d="M4425 2221 c-3 -5 -2 -12 3 -15 5 -3 9 1 9 9 0 17 -3 19 -12 6z"/>
<path d="M2008 2173 c7 -3 16 -2 19 1 4 3 -2 6 -13 5 -11 0 -14 -3 -6 -6z"/>
<path d="M2050 2159 c0 -5 5 -7 10 -4 6 3 10 8 10 11 0 2 -4 4 -10 4 -5 0 -10
-5 -10 -11z"/>
<path d="M4078 2163 c6 -2 18 -2 25 0 6 3 1 5 -13 5 -14 0 -19 -2 -12 -5z"/>
<path d="M2817 2129 c7 -7 15 -10 18 -7 3 3 -2 9 -12 12 -14 6 -15 5 -6 -5z"/>
<path d="M2606 2098 c3 -4 11 -5 19 -1 21 7 19 12 -4 10 -11 0 -18 -5 -15 -9z"/>
<path d="M2210 2050 c0 -5 7 -7 15 -4 8 4 15 8 15 10 0 2 -7 4 -15 4 -8 0 -15
-4 -15 -10z"/>
<path d="M2560 2019 c0 -5 5 -7 10 -4 6 3 10 8 10 11 0 2 -4 4 -10 4 -5 0 -10
-5 -10 -11z"/>
</g>
</svg>
